<svg xmlns="http://www.w3.org/2000/svg" viewBox="0 0 171 171"><defs><style>.cls-1{fill:#0097e6;}.cls-2{fill:#fff;}</style></defs><title>Asset 9</title><g id="Layer_2" data-name="Layer 2"><g id="Layer_1-2" data-name="Layer 1"><circle class="cls-1" cx="85.5" cy="85.5" r="85.5"/><path class="cls-2" d="M126.82,44.18H44.18A9.15,9.15,0,0,0,35,53.36v55.09a9.18,9.18,0,0,0,9.18,9.18h23v9.18h36.73v-9.18h23a9.17,9.17,0,0,0,9.14-9.18l0-55.09A9.18,9.18,0,0,0,126.82,44.18Zm0,64.27H44.18V53.36h82.64Z"/><path class="cls-2" d="M96.59,67.24H74.41a3.17,3.17,0,0,0-3.17,3.17V92.59a3.17,3.17,0,0,0,3.17,3.17H96.59a3.18,3.18,0,0,0,3.17-3.17V70.41A3.18,3.18,0,0,0,96.59,67.24Zm-12.68,19H81.54V83.08H78.37v3.17H76V76.75h2.38v4h3.17v-4h2.38Zm3.17-9.51h6.34A1.59,1.59,0,0,1,95,78.33v6.34a1.59,1.59,0,0,1-1.58,1.58H87.08Zm2.38,7.13h3.17V79.12H89.46Z"/></g></g></svg>